<?xml version="1.0" encoding="UTF-8"?>
<!DOCTYPE svg PUBLIC "-//W3C//DTD SVG 1.1//EN" "http://www.w3.org/Graphics/SVG/1.1/DTD/svg11.dtd">
<svg xmlns="http://www.w3.org/2000/svg" version="1.1" width="250px" height="250px" style="shape-rendering:geometricPrecision; text-rendering:geometricPrecision; image-rendering:optimizeQuality; fill-rule:evenodd; clip-rule:evenodd" xmlns:xlink="http://www.w3.org/1999/xlink">
<g><path style="opacity:0.9" fill="#000000" d="M 172.5,113.5 C 172.167,112.167 171.833,112.167 171.5,113.5C 170.317,114.504 168.984,115.338 167.5,116C 167.833,116.333 168.167,116.667 168.5,117C 166.888,117.72 165.388,117.554 164,116.5C 159.703,119.724 155.536,123.057 151.5,126.5C 162.532,144.369 173.365,162.369 184,180.5C 187.043,185.877 191.543,189.377 197.5,191C 204.492,191.5 211.492,191.666 218.5,191.5C 218.5,193.5 218.5,195.5 218.5,197.5C 187.167,197.5 155.833,197.5 124.5,197.5C 124.5,195.5 124.5,193.5 124.5,191.5C 132.174,191.666 139.841,191.5 147.5,191C 151.04,189.764 153.04,187.264 153.5,183.5C 146.273,169.378 138.273,155.712 129.5,142.5C 127.729,143.035 127.396,143.869 128.5,145C 127.551,145.617 126.718,145.451 126,144.5C 123.92,147.284 123.253,146.951 124,143.5C 124.925,142.953 125.758,142.287 126.5,141.5C 125.998,140.479 125.332,140.312 124.5,141C 117.955,147.041 110.955,152.541 103.5,157.5C 102.143,159.186 100.81,160.852 99.5,162.5C 94.1802,165.62 89.1802,169.453 84.5,174C 81.8333,174.667 79.1667,175.333 76.5,176C 64.5203,184.984 52.8537,194.317 41.5,204C 39.1667,205 36.8333,206 34.5,207C 26.5931,212.775 18.5931,218.275 10.5,223.5C 9.38615,222.277 9.21948,220.944 10,219.5C 12.8373,216.482 15.1706,213.149 17,209.5C 19.7953,207.707 22.2953,205.54 24.5,203C 22.8333,203.333 21.1667,203.667 19.5,204C 38.7484,189.422 57.4151,174.089 75.5,158C 67.4962,162.874 59.8295,168.54 52.5,175C 45.8792,177.984 39.8792,181.984 34.5,187C 32.4708,187.681 30.4708,188.014 28.5,188C 33.6268,183.039 38.6268,177.872 43.5,172.5C 42.9747,171.808 42.3081,171.308 41.5,171C 45.9525,166.279 50.9525,162.279 56.5,159C 60.0374,155.631 63.3707,152.131 66.5,148.5C 61.2637,151.234 56.7637,154.9 53,159.5C 52.2496,158.874 51.4162,158.374 50.5,158C 70.4602,141.709 90.1269,125.042 109.5,108C 98.3333,89.5 87.1667,71 76,52.5C 73.2924,48.8957 69.7924,46.3957 65.5,45C 57.5069,44.5003 49.5069,44.3336 41.5,44.5C 41.5,42.5 41.5,40.5 41.5,38.5C 71.1667,38.5 100.833,38.5 130.5,38.5C 130.5,40.5 130.5,42.5 130.5,44.5C 124.491,44.3338 118.491,44.5005 112.5,45C 109.365,46.2657 107.698,48.599 107.5,52C 114.507,65.5171 122.173,78.6838 130.5,91.5C 146.693,81.2272 162.026,69.7272 176.5,57C 182.884,53.6358 189.051,49.8024 195,45.5C 195.688,46.3317 195.521,46.9984 194.5,47.5C 191.833,49.5 189.167,51.5 186.5,53.5C 187.9,57.1542 189.9,57.4876 192.5,54.5C 193.192,55.0253 193.692,55.6919 194,56.5C 198.409,51.4196 203.409,47.0863 209,43.5C 209.333,44.1667 209.667,44.8333 210,45.5C 213.016,43.5284 216.183,43.195 219.5,44.5C 219.759,48.7704 217.759,51.9371 213.5,54C 214.191,55.0674 214.691,56.2341 215,57.5C 220.786,50.8717 227.286,45.205 234.5,40.5C 236.815,40.7991 236.815,41.6325 234.5,43C 235.747,44.4579 235.747,45.9579 234.5,47.5C 236.135,48.6808 237.802,48.6808 239.5,47.5C 240.696,47.8457 240.696,48.3457 239.5,49C 240.951,48.7374 242.284,48.9041 243.5,49.5C 241.491,50.8463 239.491,52.1796 237.5,53.5C 235.641,53.8879 233.641,53.8879 231.5,53.5C 226.318,56.2569 220.985,58.7569 215.5,61C 218.755,62.0914 222.089,63.0914 225.5,64C 226.684,67.5627 225.684,70.5627 222.5,73C 221.216,73.6838 220.049,73.5171 219,72.5C 215.341,76.4884 212.175,80.8217 209.5,85.5C 207.999,86.7515 206.332,87.7515 204.5,88.5C 203.571,89.6888 203.238,91.0222 203.5,92.5C 201.712,92.2148 200.045,92.5481 198.5,93.5C 191.704,97.7372 185.037,102.237 178.5,107C 176.513,108.319 175.346,110.152 175,112.5C 174.329,113.252 173.496,113.586 172.5,113.5 Z M 191.5,57.5 C 191.642,61.2231 190.309,62.0564 187.5,60C 188.471,58.5187 189.804,57.6854 191.5,57.5 Z M 209.5,59.5 C 211.379,59.3932 211.712,59.8932 210.5,61C 209.167,61.6667 207.833,61.6667 206.5,61C 207.737,60.7679 208.737,60.2679 209.5,59.5 Z M 180.5,63.5 C 181.559,65.0699 181.059,66.4032 179,67.5C 178.7,65.9343 179.2,64.601 180.5,63.5 Z M 76.5,140.5 C 75.7456,142.446 74.4122,143.279 72.5,143C 73.4709,141.519 74.8042,140.685 76.5,140.5 Z M 66.5,148.5 C 67.4577,147.038 68.6244,145.705 70,144.5C 70.1681,146.841 69.0014,148.174 66.5,148.5 Z"/></g>
<g><path style="opacity:0.029" fill="#000000" d="M 171.5,113.5 C 171.833,113.5 172.167,113.5 172.5,113.5C 172.167,116.167 171.833,116.167 171.5,113.5 Z"/></g>
<g><path style="opacity:0.085" fill="#000000" d="M 99.5,162.5 C 100.773,163.077 100.773,163.743 99.5,164.5C 98.537,164.03 98.537,163.363 99.5,162.5 Z"/></g>
</svg>
