<?xml version="1.0" encoding="UTF-8"?>
<!DOCTYPE svg PUBLIC "-//W3C//DTD SVG 1.1//EN" "http://www.w3.org/Graphics/SVG/1.1/DTD/svg11.dtd">
<svg xmlns="http://www.w3.org/2000/svg" version="1.1" width="250px" height="250px" style="shape-rendering:geometricPrecision; text-rendering:geometricPrecision; image-rendering:optimizeQuality; fill-rule:evenodd; clip-rule:evenodd" xmlns:xlink="http://www.w3.org/1999/xlink">
<g><path style="opacity:0.9" fill="#fefffe" d="M 173.5,115.5 C 173.167,114.167 172.833,114.167 172.5,115.5C 171.317,116.504 169.984,117.338 168.5,118C 168.833,118.333 169.167,118.667 169.5,119C 167.888,119.72 166.388,119.554 165,118.5C 160.703,121.724 156.536,125.057 152.5,128.5C 163.532,146.369 174.365,164.369 185,182.5C 188.043,187.877 192.543,191.377 198.5,193C 205.492,193.5 212.492,193.666 219.5,193.5C 219.5,195.5 219.5,197.5 219.5,199.5C 188.167,199.5 156.833,199.5 125.5,199.5C 125.5,197.5 125.5,195.5 125.5,193.5C 133.174,193.666 140.841,193.5 148.5,193C 152.04,191.764 154.04,189.264 154.5,185.5C 147.273,171.378 139.273,157.712 130.5,144.5C 128.729,145.035 128.396,145.869 129.5,147C 128.551,147.617 127.718,147.451 127,146.5C 124.92,149.284 124.253,148.951 125,145.5C 125.925,144.953 126.758,144.287 127.5,143.5C 126.998,142.479 126.332,142.312 125.5,143C 118.955,149.041 111.955,154.541 104.5,159.5C 103.143,161.186 101.81,162.852 100.5,164.5C 95.1802,167.62 90.1802,171.453 85.5,176C 82.8333,176.667 80.1667,177.333 77.5,178C 65.5203,186.984 53.8537,196.317 42.5,206C 40.1667,207 37.8333,208 35.5,209C 27.5931,214.775 19.5931,220.275 11.5,225.5C 10.3861,224.277 10.2195,222.944 11,221.5C 13.8373,218.482 16.1706,215.149 18,211.5C 20.7953,209.707 23.2953,207.54 25.5,205C 23.8333,205.333 22.1667,205.667 20.5,206C 39.7484,191.422 58.4151,176.089 76.5,160C 68.4962,164.874 60.8295,170.54 53.5,177C 46.8792,179.984 40.8792,183.984 35.5,189C 33.4708,189.681 31.4708,190.014 29.5,190C 34.6268,185.039 39.6268,179.872 44.5,174.5C 43.9747,173.808 43.3081,173.308 42.5,173C 46.9525,168.279 51.9525,164.279 57.5,161C 61.0374,157.631 64.3707,154.131 67.5,150.5C 62.2637,153.234 57.7637,156.9 54,161.5C 53.2496,160.874 52.4162,160.374 51.5,160C 71.4602,143.709 91.1269,127.042 110.5,110C 99.3333,91.5 88.1667,73 77,54.5C 74.2924,50.8957 70.7924,48.3957 66.5,47C 58.5069,46.5003 50.5069,46.3336 42.5,46.5C 42.5,44.5 42.5,42.5 42.5,40.5C 72.1667,40.5 101.833,40.5 131.5,40.5C 131.5,42.5 131.5,44.5 131.5,46.5C 125.491,46.3338 119.491,46.5005 113.5,47C 110.365,48.2657 108.698,50.599 108.5,54C 115.507,67.5171 123.173,80.6838 131.5,93.5C 147.693,83.2272 163.026,71.7272 177.5,59C 183.884,55.6358 190.051,51.8024 196,47.5C 196.688,48.3317 196.521,48.9984 195.5,49.5C 192.833,51.5 190.167,53.5 187.5,55.5C 188.9,59.1542 190.9,59.4876 193.5,56.5C 194.192,57.0253 194.692,57.6919 195,58.5C 199.409,53.4196 204.409,49.0863 210,45.5C 210.333,46.1667 210.667,46.8333 211,47.5C 214.016,45.5284 217.183,45.195 220.5,46.5C 220.759,50.7704 218.759,53.9371 214.5,56C 215.191,57.0674 215.691,58.2341 216,59.5C 221.786,52.8717 228.286,47.205 235.5,42.5C 237.815,42.7991 237.815,43.6325 235.5,45C 236.747,46.4579 236.747,47.9579 235.5,49.5C 237.135,50.6808 238.802,50.6808 240.5,49.5C 241.696,49.8457 241.696,50.3457 240.5,51C 241.951,50.7374 243.284,50.9041 244.5,51.5C 242.491,52.8463 240.491,54.1796 238.5,55.5C 236.641,55.8879 234.641,55.8879 232.5,55.5C 227.318,58.2569 221.985,60.7569 216.5,63C 219.755,64.0914 223.089,65.0914 226.5,66C 227.684,69.5627 226.684,72.5627 223.5,75C 222.216,75.6838 221.049,75.5171 220,74.5C 216.341,78.4884 213.175,82.8217 210.5,87.5C 208.999,88.7515 207.332,89.7515 205.5,90.5C 204.571,91.6888 204.238,93.0222 204.5,94.5C 202.712,94.2148 201.045,94.5481 199.5,95.5C 192.704,99.7372 186.037,104.237 179.5,109C 177.513,110.319 176.346,112.152 176,114.5C 175.329,115.252 174.496,115.586 173.5,115.5 Z M 192.5,59.5 C 192.642,63.2231 191.309,64.0564 188.5,62C 189.471,60.5187 190.804,59.6854 192.5,59.5 Z M 210.5,61.5 C 212.379,61.3932 212.712,61.8932 211.5,63C 210.167,63.6667 208.833,63.6667 207.5,63C 208.737,62.7679 209.737,62.2679 210.5,61.5 Z M 181.5,65.5 C 182.559,67.0699 182.059,68.4032 180,69.5C 179.7,67.9343 180.2,66.601 181.5,65.5 Z M 77.5,142.5 C 76.7456,144.446 75.4122,145.279 73.5,145C 74.4709,143.519 75.8042,142.685 77.5,142.5 Z M 67.5,150.5 C 68.4577,149.038 69.6244,147.705 71,146.5C 71.1681,148.841 70.0014,150.174 67.5,150.5 Z"/></g>
<g><path style="opacity:0.029" fill="#fefffe" d="M 172.5,115.5 C 172.833,115.5 173.167,115.5 173.5,115.5C 173.167,118.167 172.833,118.167 172.5,115.5 Z"/></g>
<g><path style="opacity:0.085" fill="#fefffe" d="M 100.5,164.5 C 101.773,165.077 101.773,165.743 100.5,166.5C 99.537,166.03 99.537,165.363 100.5,164.5 Z"/></g>
</svg>
